<svg width="17" height="17" viewBox="0 0 17 17" fill="none" xmlns="http://www.w3.org/2000/svg">
<path d="M15.6923 3.26773H12.4231V2.61388C12.4231 2.09365 12.2164 1.59472 11.8486 1.22687C11.4807 0.859005 10.9818 0.652344 10.4615 0.652344H6.53846C6.01823 0.652344 5.5193 0.859005 5.15144 1.22687C4.78358 1.59472 4.57692 2.09365 4.57692 2.61388V3.26773H1.30769C0.960871 3.26773 0.628254 3.4055 0.383014 3.65074C0.137774 3.89598 0 4.2286 0 4.57542V15.037C0 15.3838 0.137774 15.7164 0.383014 15.9616C0.628254 16.2069 0.960871 16.3447 1.30769 16.3447H15.6923C16.0391 16.3447 16.3717 16.2069 16.617 15.9616C16.8622 15.7164 17 15.3838 17 15.037V4.57542C17 4.2286 16.8622 3.89598 16.617 3.65074C16.3717 3.4055 16.0391 3.26773 15.6923 3.26773ZM5.88462 2.61388C5.88462 2.44047 5.9535 2.27416 6.07612 2.15154C6.19874 2.02892 6.36505 1.96004 6.53846 1.96004H10.4615C10.6349 1.96004 10.8013 2.02892 10.9239 2.15154C11.0465 2.27416 11.1154 2.44047 11.1154 2.61388V3.26773H5.88462V2.61388ZM15.6923 4.57542V7.97624C13.4854 9.1775 11.0127 9.80664 8.5 9.80619C5.98744 9.80665 3.51477 9.1778 1.30769 7.97705V4.57542H15.6923ZM15.6923 15.037H1.30769V9.44984C3.54705 10.5452 6.0071 11.1144 8.5 11.1139C10.9929 11.1139 13.453 10.5445 15.6923 9.44903V15.037ZM6.53846 7.84465C6.53846 7.67124 6.60735 7.50493 6.72997 7.38231C6.85259 7.25969 7.0189 7.1908 7.19231 7.1908H9.80769C9.9811 7.1908 10.1474 7.25969 10.27 7.38231C10.3927 7.50493 10.4615 7.67124 10.4615 7.84465C10.4615 8.01806 10.3927 8.18437 10.27 8.30699C10.1474 8.42961 9.9811 8.4985 9.80769 8.4985H7.19231C7.0189 8.4985 6.85259 8.42961 6.72997 8.30699C6.60735 8.18437 6.53846 8.01806 6.53846 7.84465Z" fill="#222222"/>
</svg>
