<svg width="101" height="100" viewBox="0 0 101 100" fill="none" xmlns="http://www.w3.org/2000/svg">
<path d="M100.5 50.0027C100.5 77.6186 78.1133 100 50.5027 100C22.892 100 0.5 77.6133 0.5 50.0027C0.5 22.392 22.8867 0 50.5027 0C78.1186 0 100.5 22.3867 100.5 50.0027Z" fill="#F1F1F1"/>
<path opacity="0.85" d="M27.4705 76.5266L50.9328 99.9943C77.6329 99.7653 99.3326 78.614 100.451 52.1376L70.5984 22.2852L27.4705 76.5266Z" fill="#D7D7D7"/>
<path d="M30.7436 77.8312C28.1503 77.8312 26.0469 75.7278 26.0469 73.1345V73.1452V22.2852H70.602V73.1505V73.1398C70.602 75.7332 70.602 77.8366 70.602 77.8366H30.7436V77.8312Z" fill="white"/>
<path d="M56.6027 32.5664H34.9402V35.0905H56.6027V32.5664Z" fill="#223757"/>
<path d="M46.8897 56.5625H34.9402V59.0866H46.8897V56.5625Z" fill="#223757"/>
<path d="M46.8897 61.375H34.9402V63.8991H46.8897V61.375Z" fill="#223757"/>
<path d="M71.1017 77.8328C73.4501 77.8328 75.3565 75.7293 75.3565 73.136V69.6641H34.9869V73.136C34.9869 75.7293 33.0805 77.8328 30.7322 77.8328H71.1017Z" fill="#223757"/>
<path d="M79.136 63.9668C78.6514 63.9668 78.1668 63.7698 77.8207 63.381L73.3209 58.3648C72.666 57.6406 72.7299 56.5223 73.4541 55.8673C74.1836 55.2123 75.2966 55.2762 75.9515 56.0005L80.4513 61.0167C81.1062 61.7409 81.0423 62.8592 80.3181 63.5142C79.9826 63.8177 79.5566 63.9668 79.136 63.9668Z" fill="#FF5B5B"/>
<path d="M68.3428 61.3273C62.1125 61.3273 57.043 56.2579 57.043 50.0328C57.043 43.8078 62.1125 38.7383 68.3428 38.7383C74.5732 38.7383 79.6374 43.8078 79.6374 50.0328C79.6374 56.2579 74.5732 61.3273 68.3428 61.3273ZM68.3428 42.2741C64.0614 42.2741 60.5842 45.7568 60.5842 50.0328C60.5842 54.3089 64.0668 57.7915 68.3428 57.7915C72.6189 57.7915 76.1015 54.3089 76.1015 50.0328C76.1015 45.7568 72.6189 42.2741 68.3428 42.2741Z" fill="#FCA004"/>
</svg>
