<svg width="14" height="12" viewBox="0 0 14 12" fill="none" xmlns="http://www.w3.org/2000/svg">
<path d="M11.2131 1.27658C11.2131 0.571544 11.7924 0 12.507 0C13.2215 0 13.8008 0.571544 13.8008 1.27658V10.6382C13.8008 11.3432 13.2215 11.9147 12.507 11.9147C11.7924 11.9147 11.2131 11.3432 11.2131 10.6382V10.4563C9.34837 9.39986 7.34058 8.88708 5.2512 8.68296L5.60037 10.9912C5.7011 11.5141 5.29468 12.0007 4.7529 12.0007H4.27973C3.93648 12.0007 3.62682 11.8 3.48974 11.4913L1.89439 8.5204C1.83626 8.51953 1.77813 8.51876 1.72 8.51809C0.77251 8.50715 0 7.74969 0 6.80843V5.10632C0 4.16526 0.771895 3.40738 1.71826 3.39289C2.36804 3.38294 3.16188 3.36429 3.85969 3.32948C6.48486 3.19851 9.16285 2.60706 11.2131 1.45784V1.27658ZM12.0757 1.27658V10.6382C12.0757 10.8732 12.2688 11.0637 12.507 11.0637C12.7451 11.0637 12.9382 10.8732 12.9382 10.6382V1.27658C12.9382 1.04157 12.7451 0.851053 12.507 0.851053C12.2688 0.851053 12.0757 1.04157 12.0757 1.27658ZM11.2131 2.42509C9.19102 3.45143 6.72052 3.99302 4.31274 4.15543V7.75774C4.46799 7.76705 4.62235 7.77723 4.77572 7.78839C6.99112 7.94952 9.16906 8.42234 11.2131 9.48501V2.42509ZM3.4502 7.71435V4.19947C2.86324 4.22242 2.24981 4.2359 1.73165 4.24384C1.24907 4.25123 0.862549 4.63731 0.862549 5.10632V6.80843C0.862549 7.27723 1.24857 7.66153 1.7301 7.66709C1.87513 7.66877 2.02011 7.67106 2.16505 7.67394C2.5938 7.68245 3.02217 7.69613 3.4502 7.71435ZM2.88346 8.54447L4.27129 11.1289L4.27973 11.1496L4.7529 11.1496L4.7505 11.1381L4.36864 8.61387C4.20034 8.6033 4.03065 8.5938 3.85969 8.58527C3.53422 8.56903 3.20882 8.55534 2.88346 8.54447Z" fill="#303030"/>
</svg>
