<svg width="9" height="13" viewBox="0 0 9 13" fill="none" xmlns="http://www.w3.org/2000/svg">
<path d="M4.5 9.30536C5.56071 8.44821 6.36161 7.62321 6.90268 6.83036C7.44375 6.0375 7.71429 5.29286 7.71429 4.59643C7.71429 3.63214 7.41429 2.83929 6.81429 2.21786C6.21429 1.59643 5.44286 1.28571 4.5 1.28571C3.55714 1.28571 2.78571 1.59643 2.18571 2.21786C1.58571 2.83929 1.28571 3.63214 1.28571 4.59643C1.28571 5.29286 1.55625 6.0375 2.09732 6.83036C2.63839 7.62321 3.43929 8.44821 4.5 9.30536ZM4.5 10.9286C2.98929 9.81429 1.86161 8.73214 1.11696 7.68214C0.372321 6.63214 0 5.60357 0 4.59643C0 3.25714 0.417857 2.15625 1.25357 1.29375C2.08929 0.43125 3.17143 0 4.5 0C5.82857 0 6.91071 0.43125 7.74643 1.29375C8.58214 2.15625 9 3.25714 9 4.59643C9 5.60357 8.62768 6.63214 7.88304 7.68214C7.13839 8.73214 6.01071 9.81429 4.5 10.9286ZM4.5 5.78571C4.85357 5.78571 5.15625 5.65982 5.40804 5.40804C5.65982 5.15625 5.78571 4.85357 5.78571 4.5C5.78571 4.14643 5.65982 3.84375 5.40804 3.59196C5.15625 3.34018 4.85357 3.21429 4.5 3.21429C4.14643 3.21429 3.84375 3.34018 3.59196 3.59196C3.34018 3.84375 3.21429 4.14643 3.21429 4.5C3.21429 4.85357 3.34018 5.15625 3.59196 5.40804C3.84375 5.65982 4.14643 5.78571 4.5 5.78571ZM0 12.8571V11.5714H9V12.8571H0Z" fill="#fff"/>
</svg>
