<svg width="242" height="54" viewBox="0 0 242 54" fill="none" xmlns="http://www.w3.org/2000/svg">
<g clip-path="url(#clip0_1535_21248)">
<path d="M43.9613 0H31.4592C28.1936 0 26.0483 1.37655 24.4394 3.27154C23.1939 4.73747 22.2643 6.50732 21.3943 8.18182C20.7149 9.48686 20.0714 10.7144 19.3086 11.7811C16.8952 15.1778 14.4877 15.6784 14.0944 15.7439H9.80982C6.41314 15.7439 3.48723 13.1696 3.32038 9.82057C3.1416 6.23916 6.03772 3.27154 9.62509 3.27154H16.3171C17.2348 3.27154 17.9738 2.53857 17.9738 1.63875C17.9738 0.738926 17.2348 0.00595908 16.3171 0.00595908H9.86345C4.64925 0 0.203774 3.99259 0.00712472 9.14124C-0.201443 14.5461 4.19636 19.0154 9.62509 19.0154H14.3208C14.595 18.9916 16.3171 18.795 18.4445 17.2992C19.0285 16.888 19.6483 16.3815 20.274 15.7439C20.852 15.1599 21.436 14.4746 22.0081 13.6642C22.896 12.4128 23.623 11.0243 24.3261 9.68351C26.3999 5.7088 27.8539 3.2775 31.4473 3.2775H44.003C47.3997 3.2775 50.3256 5.85182 50.4925 9.20083C50.6713 12.7822 47.7751 15.7499 44.1878 15.7499H38.6816C38.6816 15.7499 38.622 15.7499 38.5981 15.7499C37.2931 15.7618 36.2324 16.0716 35.3743 16.5663C34.3076 17.1741 33.5508 18.0679 33.0383 19.0154C32.3769 20.237 32.1028 21.56 32.067 22.5313V45.5512C32.067 48.3103 29.737 50.5509 26.9124 50.5509C24.0878 50.5509 21.7935 48.3043 21.7935 45.5512V33.2279C21.7935 32.3161 21.0427 31.5772 20.119 31.5772C19.1954 31.5772 18.4445 32.3161 18.4445 33.2279V45.5512C18.4445 50.1099 22.2405 53.8224 26.9124 53.8224C31.5843 53.8224 35.3624 50.1219 35.3743 45.5751C35.3743 45.5691 35.3743 45.5572 35.3743 45.5512V22.6386C35.3862 22.2691 35.5888 19.0393 38.6518 19.0154H44.1937C49.6225 19.0154 54.0203 14.5521 53.8117 9.14124C53.615 3.99855 49.1696 0 43.9554 0L43.9613 0Z" fill="#0C59D8"/>
<path d="M19.7201 28.7414C19.7797 28.938 19.875 29.087 20.0657 29.1585H20.2683C20.459 29.087 20.5603 28.9499 20.6139 28.7593C20.6616 28.5805 20.7272 28.4077 20.7867 28.2289C21.2516 26.8762 22.1395 25.9049 23.4564 25.3447C23.7603 25.2136 24.0821 25.1242 24.3979 25.017C24.6184 24.9395 24.7257 24.7965 24.7317 24.5998C24.7317 24.3972 24.6244 24.2542 24.3979 24.1708C24.2073 24.1052 24.0225 24.0456 23.8318 23.9801C22.5923 23.5689 21.6568 22.7942 21.0787 21.6262C20.8761 21.227 20.751 20.786 20.5961 20.3629C20.5186 20.1484 20.3756 20.0352 20.1789 20.0352C19.9823 20.0352 19.8333 20.1484 19.7618 20.3569C19.6903 20.5596 19.6307 20.7622 19.5592 20.9648C19.1361 22.1983 18.3554 23.1279 17.1815 23.706C16.7882 23.9026 16.3591 24.0218 15.942 24.1767C15.7334 24.2542 15.6143 24.4032 15.6143 24.5939C15.6143 24.7905 15.7334 24.9395 15.942 25.011C16.1446 25.0825 16.3472 25.1481 16.5498 25.2136C17.5986 25.5652 18.4269 26.2028 19.0348 27.1265C19.3625 27.6211 19.5473 28.1753 19.7201 28.7354V28.7414Z" fill="#0C59D8"/>
<path d="M82.7847 13.8086H64.0731C62.6549 13.8086 61.5107 14.8991 61.5107 16.2459C61.5107 17.5926 62.6608 18.6831 64.0731 18.6831H70.8665V37.4542C70.8665 38.801 72.0166 39.8915 73.4289 39.8915C74.8412 39.8915 75.9913 38.801 75.9913 37.4542V18.6831H82.7847C84.2029 18.6831 85.3471 17.5926 85.3471 16.2459C85.3471 14.8991 84.197 13.8086 82.7847 13.8086Z" fill="#0C59D8"/>
<path d="M89.4648 13.8086C88.0465 13.8086 86.9023 14.8991 86.9023 16.2459V37.4602C86.9023 38.807 88.0524 39.8975 89.4648 39.8975C90.8771 39.8975 92.0272 38.807 92.0272 37.4602V16.2518C92.0272 14.9051 90.8771 13.8146 89.4648 13.8146V13.8086Z" fill="#0C59D8"/>
<path d="M108.629 18.3277C110.971 18.3277 113.194 19.1798 114.88 20.7232C115.899 21.6588 117.526 21.629 118.504 20.6577C119.487 19.6863 119.457 18.1429 118.432 17.2133C115.78 14.788 112.3 13.4531 108.623 13.4531C100.823 13.4531 94.4766 19.4897 94.4766 26.9087C94.4766 34.3278 100.823 40.3643 108.623 40.3643C112.235 40.3643 115.673 39.0712 118.301 36.7234C119.993 35.2097 118.855 32.5043 116.549 32.5043C115.917 32.5043 115.292 32.7248 114.797 33.1658C113.123 34.6615 110.93 35.4839 108.629 35.4839C103.654 35.4839 99.6073 31.6343 99.6073 26.9087C99.6073 22.1772 103.654 18.3277 108.629 18.3277Z" fill="#0C59D8"/>
<path d="M133.49 25.303L140.951 17.9435C141.934 16.9722 141.905 15.4288 140.886 14.4992C139.867 13.5636 138.246 13.5934 137.262 14.5647L125.94 25.732V16.2571C125.94 14.9103 124.79 13.8198 123.378 13.8198C121.966 13.8198 120.815 14.9103 120.815 16.2571V37.4714C120.815 38.8182 121.966 39.9087 123.378 39.9087C124.79 39.9087 125.94 38.8182 125.94 37.4714V32.7638L129.909 28.8486L138.687 39.0208C139.193 39.6108 139.926 39.9147 140.671 39.9147C141.243 39.9147 141.821 39.7359 142.298 39.3605C143.394 38.5083 143.549 36.9709 142.655 35.928L133.502 25.3149L133.49 25.303Z" fill="#0C59D8"/>
<path d="M160.807 35.0248H150.17V16.2537C150.17 14.9069 149.02 13.8164 147.607 13.8164C146.195 13.8164 145.045 14.9069 145.045 16.2537V37.468C145.045 38.8148 146.195 39.9053 147.607 39.9053H160.807C162.225 39.9053 163.369 38.8148 163.369 37.468C163.369 36.1213 162.219 35.0307 160.807 35.0307V35.0248Z" fill="#0C59D8"/>
<path d="M181.962 35.0227H169.656V29.2961H179.781C181.199 29.2961 182.343 28.2055 182.343 26.8588C182.343 25.512 181.193 24.4215 179.781 24.4215H169.656V18.6948H181.962C183.38 18.6948 184.524 17.6043 184.524 16.2576C184.524 14.9108 183.374 13.8203 181.962 13.8203H167.094C165.675 13.8203 164.531 14.9108 164.531 16.2576V37.4719C164.531 38.8187 165.681 39.9092 167.094 39.9092H181.962C183.38 39.9092 184.524 38.8187 184.524 37.4719C184.524 36.1252 183.374 35.0347 181.962 35.0347V35.0227Z" fill="#0C59D8"/>
<g clip-path="url(#clip1_1535_21248)">
<path d="M238.21 42.1635V27.0035C238.21 20.6988 233.098 15.5859 226.793 15.5859C220.488 15.5859 215.375 20.6988 215.375 27.0035L215.316 28.1834C214.726 33.9399 209.863 38.4271 203.958 38.4271C197.653 38.4271 192.54 33.3142 192.54 27.0095C192.54 20.7048 197.641 15.5859 203.946 15.5859C209.875 15.5859 214.75 20.1089 215.31 25.8952" stroke="url(#paint0_linear_1535_21248)" stroke-width="7.61571" stroke-miterlimit="10"/>
<path d="M238.21 42.1635V27.0035C238.21 20.6988 233.098 15.5859 226.793 15.5859C220.488 15.5859 215.375 20.6988 215.375 27.0035L215.316 28.1834C214.726 33.9399 209.863 38.4271 203.958 38.4271C197.653 38.4271 192.54 33.3142 192.54 27.0095C192.54 20.7048 197.641 15.5859 203.946 15.5859C205.948 15.5859 207.831 16.1044 209.47 17.0102" stroke="url(#paint1_linear_1535_21248)" stroke-width="7.61571" stroke-miterlimit="10"/>
</g>
</g>
<defs>
<linearGradient id="paint0_linear_1535_21248" x1="187.177" y1="18.8634" x2="211.663" y2="19.8228" gradientUnits="userSpaceOnUse">
<stop stop-color="#3AABB9"/>
<stop offset="0.605859" stop-color="#3097A3"/>
<stop offset="1" stop-color="#155F65"/>
</linearGradient>
<linearGradient id="paint1_linear_1535_21248" x1="238.425" y1="40.3161" x2="208.332" y2="17.6716" gradientUnits="userSpaceOnUse">
<stop stop-color="#3AABB9"/>
<stop offset="0.848541" stop-color="#319AA6" stop-opacity="0.775"/>
<stop offset="1" stop-color="#319AA6" stop-opacity="0"/>
</linearGradient>
<clipPath id="clip0_1535_21248">
<rect width="242" height="53.8224" fill="white"/>
</clipPath>
<clipPath id="clip1_1535_21248">
<rect width="53.6318" height="30.9872" fill="white" transform="translate(188.368 11.418)"/>
</clipPath>
</defs>
</svg>
