<svg width="114" height="126" viewBox="0 0 114 126" fill="none" xmlns="http://www.w3.org/2000/svg">
<g clip-path="url(#clip0_1535_22052)">
<path d="M41.9343 125.999L31.5 120.019L46.0147 64.2812L56.449 70.2612L41.9343 125.999Z" fill="#EBB12A"/>
<path d="M69.678 44.5497L59.2437 38.5698L72.0656 31.2734L82.4999 37.2534L69.678 44.5497Z" fill="#F3D35A"/>
<path d="M45.0119 76.7712L34.5776 70.7961L45.2949 43.1914L55.7292 49.1665L45.0119 76.7712Z" fill="#EBB12A"/>
<path d="M65.2849 30.4135L54.8506 24.4385L66.5259 17.793L76.9602 23.7729L65.2849 30.4135Z" fill="#F3D35A"/>
<path d="M57.2136 15.0967L46.7793 9.12164L62.803 0L73.2373 5.97996L57.2136 15.0967Z" fill="#F3D35A"/>
<path d="M45.2004 55.1599L34.7661 49.18L46.779 9.12109L57.2133 15.0962L45.2004 55.1599Z" fill="#EBB12A"/>
<path d="M82.4998 37.2554L41.9341 126.001L56.4488 70.2626L45.0118 76.7711L55.729 49.1663L45.2004 55.161L57.2132 15.0972L73.237 5.98047L65.2847 30.4141L76.96 23.7735L69.6778 44.5517L82.4998 37.2554Z" fill="#E58D21"/>
</g>
<defs>
<clipPath id="clip0_1535_22052">
<rect width="51" height="126" fill="white" transform="translate(31.5)"/>
</clipPath>
</defs>
</svg>
