<svg width="114" height="100" viewBox="0 0 114 100" fill="none" xmlns="http://www.w3.org/2000/svg">
<g clip-path="url(#clip0_1535_21896)">
<path d="M21.3947 58.6278V23.043L37.3413 32.2492C36.5062 41.1128 36.5798 54.9929 40.8432 61.5154C43.2778 65.2409 44.0818 69.7251 42.2756 71.6728C40.9791 73.0684 30.1706 80.8507 27.7161 79.4352C27.7161 79.4352 21.3947 61.1559 21.3947 58.6278Z" fill="#C03A3A"/>
<path d="M25.8788 38.8664L9.93213 29.6602V38.5748L25.4683 47.2941C25.4853 44.2735 25.6438 41.3689 25.8788 38.8664Z" fill="#E34D66"/>
<path d="M25.4683 47.2935L9.93213 38.5742V65.2473C9.93213 67.7725 11.7043 70.8441 13.8926 72.1067L24.9616 78.4989C27.416 79.9144 29.5137 79.6879 30.8103 78.2894C32.6164 76.3446 31.8124 71.8575 29.3778 68.132C26.3176 63.4497 25.423 54.9795 25.4655 47.2935H25.4683Z" fill="#FF5B5B"/>
<path d="M27.1586 22.5712C22.1224 31.2933 13.9608 36.0068 8.92456 33.0994C3.89116 30.1921 -2.42466 16.8442 2.61157 8.12491C7.64498 -0.597201 22.1252 -1.38986 27.1586 1.51751C32.1949 4.42488 32.1949 13.8519 27.1586 22.5712Z" fill="#FF5B5B"/>
<path d="M41.8452 9.99756C38.4877 8.0612 35.1246 6.12767 31.7671 4.19131C30.1195 3.24012 28.5002 2.16153 26.7903 1.32357C25.3862 0.635656 23.7867 0.530912 22.2608 0.802682C18.3003 1.50758 14.8721 4.33003 12.3044 7.2827C8.92143 11.1752 6.41605 16.0473 5.49034 21.1373C4.81658 24.8458 4.85338 29.6981 7.94193 32.3959C9.30078 33.5821 11.1352 34.3776 12.6894 35.2722C14.3851 36.2517 16.0894 37.2114 17.7823 38.1909C19.478 39.1704 21.1624 40.164 22.8553 41.1435C24.2566 41.9532 25.5985 42.4911 27.2517 42.4316C31.1358 42.2929 34.683 39.7281 37.3072 37.0613C40.9054 33.4066 43.5947 28.6931 44.8857 23.7276C45.8765 19.9087 46.2813 14.9828 43.7165 11.6508C43.2041 10.9856 42.5699 10.4137 41.8424 9.99473L41.8452 9.99756Z" fill="#C03A3A"/>
<path d="M100.205 8.32686C95.3269 5.51008 90.0246 6.06778 84.6429 6.38484C79.6746 6.67926 74.7064 6.97368 69.7381 7.27092C59.8892 7.85693 50.0432 8.45425 40.1944 9.03743C38.0571 9.16482 36.1094 9.29787 34.1305 10.1868C32.0696 11.1153 30.2239 12.4968 28.6017 14.0623C24.7177 17.8105 21.833 22.7986 20.5222 28.0358C19.9419 30.3487 19.6588 32.7833 19.9617 35.1585C20.2448 37.3864 21.2639 39.2435 22.2548 41.2223C24.4431 45.5905 26.6314 49.9558 28.8197 54.3239C33.3351 63.332 37.8306 72.3485 42.3403 81.3594C44.6135 85.9002 46.7707 90.3108 51.3455 92.9549C54.0405 94.5119 57.1262 95.2394 60.2261 95.2564C67.8272 95.2932 75.0885 91.5168 81.0165 87.0524C88.7988 81.1867 95.1287 73.4526 100.021 65.0645C105.49 55.6856 109.428 45.0639 110.198 34.1705C110.747 26.4081 109.685 17.5217 104.202 11.5485C103.041 10.283 101.694 9.1903 100.205 8.33252V8.32686Z" fill="#E8DFBA"/>
<path d="M100.206 64.7443C113.697 41.3767 113.697 16.1191 100.206 8.32978C86.7144 0.54051 64.8406 13.1692 51.3493 36.5369C37.858 59.9045 37.8581 85.1621 51.3495 92.9514C64.8409 100.741 86.7147 88.1119 100.206 64.7443Z" fill="#ED7287"/>
<path d="M102.805 66.2438C117.731 40.3903 117.731 12.4456 102.805 3.82767C87.878 -4.79025 63.6772 9.18202 48.7506 35.0356C33.824 60.8892 33.8241 88.8339 48.7508 97.4518C63.6774 106.07 87.8783 92.0974 102.805 66.2438Z" fill="#FF5B5B"/>
<path d="M102.806 66.2468C89.3906 89.486 67.6377 102.044 54.2191 94.2986C40.8033 86.5531 40.8033 61.4342 54.2191 38.195C67.6349 14.9559 89.3878 2.39786 102.806 10.1433C116.222 17.8887 116.222 43.0076 102.806 66.2468Z" fill="#ED516B"/>
<path d="M98.2855 63.6343C86.1182 84.7191 66.3809 96.1023 54.2164 89.0844C45.2536 83.9038 42.8983 70.1738 47.156 54.8669C47.7222 52.8258 48.3931 50.7507 49.2084 48.6643C50.5333 45.1766 52.2064 41.6578 54.2164 38.1927C56.4443 34.337 58.9412 30.7954 61.5909 27.6333C62.7318 26.2659 63.9038 24.9722 65.0985 23.7549C76.2212 12.4029 89.3115 7.57044 98.2827 12.7511C110.45 19.7803 110.45 42.558 98.2827 63.6315L98.2855 63.6343Z" fill="#C03A3A"/>
<path d="M88.2727 48.2658C87.3611 52.2517 85.4701 56.0423 82.993 59.2922C79.8875 63.366 73.6735 69.059 68.0145 66.647C66.7321 66.1035 65.5488 65.2684 64.3428 64.5833C62.9953 63.7481 61.6477 62.8026 60.2691 61.6504C57.4664 58.9016 54.4572 55.3714 51.1223 51.1023C50.4712 50.2672 49.8286 49.4519 49.2114 48.6677C50.5363 45.18 52.2094 41.6612 54.2194 38.1961C56.4473 34.3404 58.9442 30.7989 61.5939 27.6367C70.8709 29.5363 79.3015 32.4267 85.1445 35.5124C86.2967 36.1748 87.1658 37.2081 87.7518 38.3801C89.2409 41.3894 89.0116 45.0838 88.2727 48.2658Z" fill="#E3C39E"/>
<path d="M85.1474 56.0484C80.2357 64.5554 72.2723 69.1528 67.3606 66.3162C62.449 63.4796 62.449 54.2847 67.3606 45.7778C72.2723 37.2708 80.2357 32.6733 85.1474 35.5099C90.0591 38.3465 90.0591 47.5414 85.1474 56.0484Z" fill="#E8DFBA"/>
<path d="M85.147 56.0507C83.7372 58.4938 81.4499 59.8158 80.0372 59.0005C78.6274 58.1852 78.6274 55.5439 80.0372 53.1008C81.447 50.6577 83.7344 49.3357 85.147 50.151C86.5569 50.9663 86.5569 53.6076 85.147 56.0507Z" fill="#C4A27A"/>
</g>
<defs>
<clipPath id="clip0_1535_21896">
<rect width="113.237" height="100" fill="white" transform="translate(0.762573)"/>
</clipPath>
</defs>
</svg>
